# xmcd CD database file
#
# Track frame offsets:
#	150
#	20231
#	45131
#	70792
#	90925
#	110248
#	137973
#	161694
#	182277
#
# Disc length: 2678 seconds
#
# Revision: 0
# Processed by: cddbd v1.5.2PL0 Copyright (c) Steve Scherf et al.
# Submitted via: CDex 1.70beta2
#
DISCID=6f0a7409
DTITLE=Storyville - Live At Antones - Disc 2
DYEAR=2006
DGENRE=Blues
TTITLE0=Cynical
TTITLE1=Wings Won't Let Me Fly
TTITLE2=Solid Ground
TTITLE3=Luck Runs Out
TTITLE4=Good Day For The Blues
TTITLE5=Writing On The Wall
TTITLE6=Spanish Castle Magic
TTITLE7=Nice Ain't Got Me Nothing
TTITLE8=Bad Moon Rising
EXTD=YEAR: 2006
EXTT0=
EXTT1=
EXTT2=
EXTT3=
EXTT4=
EXTT5=
EXTT6=
EXTT7=
EXTT8=
PLAYORDER=
